<svg xmlns="http://www.w3.org/2000/svg" width="1600" height="980" viewBox="0 0 1600 980">
<defs>
 <linearGradient id="bg" x1="0" y1="0" x2="1" y2="1"><stop stop-color="#060916"/><stop offset=".5" stop-color="#11163A"/><stop offset="1" stop-color="#07091B"/></linearGradient>
 <linearGradient id="a" x1="0" y1="0" x2="1" y2="0"><stop stop-color="#62F6FF"/><stop offset=".5" stop-color="#9B7CFF"/><stop offset="1" stop-color="#39F5B2"/></linearGradient>
 <filter id="g"><feGaussianBlur stdDeviation="7" result="b"/><feMerge><feMergeNode in="b"/><feMergeNode in="SourceGraphic"/></feMerge></filter>
 <pattern id="grid" width="40" height="40" patternUnits="userSpaceOnUse"><path d="M40 0H0V40" fill="none" stroke="#7882C7" stroke-opacity=".07"/></pattern>
 <style>
 .t{font-family:Inter,Segoe UI,Arial,sans-serif;fill:#F5F7FF}.m{font-family:Inter,Segoe UI,Arial,sans-serif;fill:#A7AFD5}.mono{font-family:Consolas,ui-monospace,monospace}.cyan{fill:#62F6FF}.green{fill:#39F5B2}.purple{fill:#B39CFF}.label{font-size:13px;letter-spacing:2.5px}.title{font-size:48px;font-weight:750}.sub{font-size:19px}.h{font-size:24px;font-weight:700}.body{font-size:17px}.tiny{font-size:13px}.num{font-size:15px;font-weight:700}
 </style>
</defs>
<rect width="1600" height="980" fill="url(#bg)"/><rect width="1600" height="980" fill="url(#grid)"/>
<circle cx="800" cy="480" r="360" fill="#625CFF" opacity=".07" filter="url(#g)"/>
<text x="70" y="70" class="t title">How Git Is Actually Installed on Windows</text>
<text x="70" y="105" class="m sub">Download → run the .exe → setup wizard → choose options → PATH → install → finish → verify</text>
<text x="1530" y="70" text-anchor="end" class="cyan label">GIT FOR WINDOWS · REAL INSTALL FLOW</text>

<!-- timeline -->
<line x1="95" y1="155" x2="1505" y2="155" stroke="#303866" stroke-width="3"/>
<line x1="95" y1="155" x2="1505" y2="155" stroke="url(#a)" stroke-width="3" stroke-dasharray="90 1320">
 <animate attributeName="stroke-dashoffset" values="1410;0" dur="4s" repeatCount="indefinite"/>
</line>
<g class="t num">
 <circle cx="95" cy="155" r="21" fill="#101633" stroke="#62F6FF" stroke-width="3"/><text x="95" y="161" text-anchor="middle">1</text>
 <circle cx="296" cy="155" r="21" fill="#101633" stroke="#62F6FF" stroke-width="3"/><text x="296" y="161" text-anchor="middle">2</text>
 <circle cx="497" cy="155" r="21" fill="#101633" stroke="#62F6FF" stroke-width="3"/><text x="497" y="161" text-anchor="middle">3</text>
 <circle cx="698" cy="155" r="21" fill="#101633" stroke="#9B7CFF" stroke-width="3"/><text x="698" y="161" text-anchor="middle">4</text>
 <circle cx="899" cy="155" r="21" fill="#101633" stroke="#9B7CFF" stroke-width="3"/><text x="899" y="161" text-anchor="middle">5</text>
 <circle cx="1100" cy="155" r="21" fill="#101633" stroke="#39F5B2" stroke-width="3"/><text x="1100" y="161" text-anchor="middle">6</text>
 <circle cx="1301" cy="155" r="21" fill="#101633" stroke="#39F5B2" stroke-width="3"/><text x="1301" y="161" text-anchor="middle">7</text>
 <circle cx="1502" cy="155" r="21" fill="#101633" stroke="#39F5B2" stroke-width="3"/><text x="1502" y="161" text-anchor="middle">8</text>
</g>
<g class="m tiny" text-anchor="middle">
 <text x="95" y="192">Download</text><text x="296" y="192">Run .exe</text><text x="497" y="192">License</text><text x="698" y="192">Location</text><text x="899" y="192">Components</text><text x="1100" y="192">PATH</text><text x="1301" y="192">Install</text><text x="1502" y="192">Verify</text>
</g>

<!-- Row 1 -->
<g transform="translate(55 225)">
 <rect width="355" height="285" rx="24" fill="#0B1028" stroke="#394477"/>
 <text x="25" y="35" class="cyan label">01 · DOWNLOAD</text>
 <rect x="25" y="55" width="305" height="190" rx="14" fill="#070A16" stroke="#29335E"/>
 <text x="43" y="84" class="m tiny">Browser</text><rect x="43" y="96" width="269" height="34" rx="8" fill="#10162F"/>
 <text x="56" y="118" class="mono tiny t">git-scm.com/install/windows</text>
 <text x="43" y="157" class="t body">Git for Windows / x64</text><text x="43" y="181" class="m tiny">Download the installer</text>
 <rect x="43" y="201" width="120" height="28" rx="7" fill="#12322E" stroke="#39F5B2"/><text x="103" y="220" text-anchor="middle" class="green tiny">DOWNLOAD</text>
 <circle cx="270" cy="215" r="7" fill="#62F6FF" filter="url(#g)"><animate attributeName="cx" values="165;285;165" dur="2s" repeatCount="indefinite"/></circle>
</g>
<g transform="translate(435 225)">
 <rect width="355" height="285" rx="24" fill="#0B1028" stroke="#394477"/>
 <text x="25" y="35" class="cyan label">02 · RUN .EXE</text>
 <rect x="25" y="55" width="305" height="190" rx="14" fill="#090C18" stroke="#29335E"/>
 <text x="43" y="85" class="t body">Downloads</text><rect x="43" y="99" width="269" height="40" rx="9" fill="#151A31"/>
 <text x="57" y="124" class="mono tiny t">Git-2.55.0-64-bit.exe</text>
 <text x="43" y="164" class="m tiny">Double-click the installer</text>
 <rect x="43" y="184" width="115" height="34" rx="8" fill="#171F43" stroke="#62F6FF"/><text x="100" y="206" text-anchor="middle" class="cyan tiny">OPEN</text>
 <text x="181" y="206" class="m tiny">→ UAC: Yes</text>
</g>
<g transform="translate(815 225)">
 <rect width="355" height="285" rx="24" fill="#0B1028" stroke="#394477"/>
 <text x="25" y="35" class="purple label">03 · LICENSE</text>
 <rect x="25" y="55" width="305" height="190" rx="14" fill="#090C18" stroke="#29335E"/>
 <text x="43" y="84" class="t body">Git Setup</text><text x="43" y="112" class="m tiny">GNU General Public License</text>
 <rect x="43" y="126" width="269" height="58" rx="8" fill="#11172E"/><text x="57" y="149" class="m tiny">Review the license agreement</text><text x="57" y="169" class="m tiny">Then click Next</text>
 <rect x="43" y="198" width="115" height="30" rx="7" fill="#171F43" stroke="#9B7CFF"/><text x="100" y="218" text-anchor="middle" class="purple tiny">NEXT ›</text>
</g>
<g transform="translate(1195 225)">
 <rect width="350" height="285" rx="24" fill="#0B1028" stroke="#394477"/>
 <text x="25" y="35" class="purple label">04 · INSTALL LOCATION</text>
 <rect x="25" y="55" width="300" height="190" rx="14" fill="#090C18" stroke="#29335E"/>
 <text x="43" y="84" class="t body">Destination Folder</text>
 <rect x="43" y="104" width="264" height="36" rx="7" fill="#11172E"/><text x="54" y="127" class="mono tiny m">C:\Program Files\Git</text>
 <text x="43" y="162" class="m tiny">Usually keep the default location.</text>
 <rect x="43" y="194" width="115" height="30" rx="7" fill="#171F43" stroke="#9B7CFF"/><text x="100" y="214" text-anchor="middle" class="purple tiny">NEXT ›</text>
</g>

<!-- Row 2 -->
<g transform="translate(55 545)">
 <rect width="355" height="285" rx="24" fill="#0B1028" stroke="#394477"/>
 <text x="25" y="35" class="purple label">05 · COMPONENTS</text>
 <rect x="25" y="55" width="305" height="190" rx="14" fill="#090C18" stroke="#29335E"/>
 <text x="43" y="84" class="t body">Select Components</text><text x="43" y="114" class="m tiny">✓ Git Bash Here</text><text x="43" y="137" class="m tiny">✓ Git GUI Here</text><text x="43" y="160" class="m tiny">✓ Git LFS</text><text x="43" y="183" class="m tiny">✓ File associations</text>
 <rect x="43" y="203" width="115" height="28" rx="7" fill="#171F43" stroke="#9B7CFF"/><text x="100" y="222" text-anchor="middle" class="purple tiny">NEXT ›</text>
</g>
<g transform="translate(435 545)">
 <rect width="355" height="285" rx="24" fill="#0B1028" stroke="#394477"/>
 <text x="25" y="35" class="purple label">06 · PATH CONFIG</text>
 <rect x="25" y="55" width="305" height="190" rx="14" fill="#090C18" stroke="#29335E"/>
 <text x="43" y="84" class="t body">Adjust PATH Environment</text>
 <text x="43" y="113" class="m tiny">● Git from the command line</text><text x="43" y="138" class="m tiny">  and also from 3rd-party software</text>
 <rect x="43" y="164" width="245" height="45" rx="9" fill="#122A2A" stroke="#39F5B2"/><text x="55" y="192" class="green tiny">Recommended choice</text>
 <path d="M300 185l12 12 22-28" fill="none" stroke="#39F5B2" stroke-width="4"/>
</g>
<g transform="translate(815 545)">
 <rect width="355" height="285" rx="24" fill="#0B1028" stroke="#394477"/>
 <text x="25" y="35" class="green label">07 · INSTALL</text>
 <rect x="25" y="55" width="305" height="190" rx="14" fill="#090C18" stroke="#29335E"/>
 <text x="43" y="84" class="t body">Ready to Install</text><text x="43" y="113" class="m tiny">Git is ready with your selected options.</text>
 <rect x="43" y="143" width="245" height="18" rx="9" fill="#18213B"/><rect x="43" y="143" width="190" height="18" rx="9" fill="url(#a)"><animate attributeName="width" values="35;245;35" dur="2.8s" repeatCount="indefinite"/></rect>
 <text x="43" y="191" class="green tiny">Installing files…</text><text x="43" y="219" class="m tiny">Finish the setup wizard.</text>
</g>
<g transform="translate(1195 545)">
 <rect width="350" height="285" rx="24" fill="#0B1028" stroke="#39F5B2"/>
 <text x="25" y="35" class="green label">08 · FINISH + VERIFY</text>
 <rect x="25" y="55" width="300" height="190" rx="14" fill="#090C18" stroke="#29335E"/>
 <text x="43" y="84" class="t body">Git Setup Complete</text><path d="M47 116l12 12 23-29" fill="none" stroke="#39F5B2" stroke-width="5" stroke-linecap="round" stroke-linejoin="round"/>
 <text x="43" y="160" class="m tiny">Open Git Bash or Windows Terminal</text>
 <rect x="43" y="178" width="250" height="43" rx="9" fill="#070A16" stroke="#2B3766"/><text x="57" y="205" class="mono small green">$ git --version</text>
 <circle cx="277" cy="198" r="7" fill="#39F5B2" filter="url(#g)"><animate attributeName="opacity" values=".25;1;.25" dur="1.2s" repeatCount="indefinite"/></circle>
</g>

<!-- final flow -->
<g transform="translate(55 865)">
 <rect width="1490" height="70" rx="22" fill="#090D23" stroke="#343D74"/>
 <text x="28" y="29" class="m label">FINAL CHECK</text>
 <text x="28" y="54" class="t body">Installer finished</text><text x="220" y="54" class="cyan body">→</text><text x="255" y="54" class="t body">Git is on PATH</text><text x="490" y="54" class="cyan body">→</text><text x="525" y="54" class="t body">Terminal finds git</text><text x="800" y="54" class="cyan body">→</text><text x="835" y="54" class="mono green body">git --version</text><text x="1065" y="54" class="cyan body">→</text><text x="1100" y="54" class="green body">Git ready ✓</text>
 <circle cx="1430" cy="35" r="9" fill="#39F5B2" filter="url(#g)"/>
</g>
</svg>